<svg width="38" height="38" viewBox="0 0 38 38" fill="none" xmlns="http://www.w3.org/2000/svg">
<path d="M21.9215 26.5953C22.2743 26.7573 22.6718 26.7943 23.0485 26.7002C23.4251 26.6061 23.7585 26.3865 23.9937 26.0776L24.6002 25.2833C24.9184 24.8589 25.3311 24.5145 25.8055 24.2773C26.2799 24.0401 26.8031 23.9166 27.3335 23.9166H32.4585C33.3647 23.9166 34.2337 24.2766 34.8744 24.9173C35.5152 25.5581 35.8752 26.4271 35.8752 27.3333V32.4583C35.8752 33.3644 35.5152 34.2334 34.8744 34.8742C34.2337 35.5149 33.3647 35.8749 32.4585 35.8749C24.3031 35.8749 16.4817 32.6352 10.715 26.8685C4.94822 21.1017 1.7085 13.2803 1.7085 5.12492C1.7085 4.21876 2.06847 3.34972 2.70921 2.70897C3.34996 2.06822 4.21901 1.70825 5.12516 1.70825H10.2502C11.1563 1.70825 12.0254 2.06822 12.6661 2.70897C13.3069 3.34972 13.6668 4.21876 13.6668 5.12492V10.2499C13.6668 10.7803 13.5433 11.3035 13.3061 11.7779C13.0689 12.2523 12.7245 12.665 12.3002 12.9833L11.5007 13.5829C11.187 13.8223 10.966 14.163 10.8751 14.547C10.7841 14.9309 10.8289 15.3346 11.0018 15.6893C13.3366 20.4314 17.1765 24.2664 21.9215 26.5953Z" stroke="#3AC0A0" stroke-width="3.41667" stroke-linecap="round" stroke-linejoin="round"/>
</svg>
