<svg width="139" height="175" viewBox="0 0 139 175" fill="none" xmlns="http://www.w3.org/2000/svg">
<path d="M69.5 0C69.5 0 0 18.7225 0 37.4449C0 87.3714 13.9 149.78 69.5 174.743C125.1 149.78 139 87.3714 139 37.4449C139 18.7225 69.5 0 69.5 0Z" fill="#277AFF"/>
<path d="M69.5011 18.7224C69.5011 18.7224 20.8511 31.204 20.8511 43.6857C20.8511 81.1306 27.8011 131.057 69.5011 149.78C111.201 131.057 118.151 81.1306 118.151 43.6857C118.151 31.204 69.5011 18.7224 69.5011 18.7224Z" fill="#3AC0A0"/>
<path d="M76.4502 56.167H62.5502C60.631 56.167 59.0752 57.564 59.0752 59.2874V115.455C59.0752 117.178 60.631 118.575 62.5502 118.575H76.4502C78.3694 118.575 79.9252 117.178 79.9252 115.455V59.2874C79.9252 57.564 78.3694 56.167 76.4502 56.167Z" fill="white"/>
<path d="M100.774 78.0093H38.2235C36.3043 78.0093 34.7485 79.4063 34.7485 81.1297V93.6113C34.7485 95.3347 36.3043 96.7317 38.2235 96.7317H100.774C102.693 96.7317 104.249 95.3347 104.249 93.6113V81.1297C104.249 79.4063 102.693 78.0093 100.774 78.0093Z" fill="white"/>
<path d="M69.5002 96.7317C75.2578 96.7317 79.9252 92.5406 79.9252 87.3705C79.9252 82.2004 75.2578 78.0093 69.5002 78.0093C63.7426 78.0093 59.0752 82.2004 59.0752 87.3705C59.0752 92.5406 63.7426 96.7317 69.5002 96.7317Z" fill="#277AFF"/>
</svg>
